<svg version="1.2" baseProfile="tiny-ps" xmlns="http://www.w3.org/2000/svg" viewBox="0 0 1667 1046" width="1667" height="1046">
	<title>Mondelez_international_2012_logo-svg</title>
	<style>
		tspan { white-space:pre }
		.shp0 { fill: #e51636 } 
		.shp1 { fill: #472380 } 
	</style>
	<g id="layer1">
		<g id="g545">
			<path id="path386" class="shp0" d="M598.57 848.74C572.58 872.34 535.04 880.2 511.54 883.21C463.64 889.19 414.11 873.29 382.51 835.18C356.55 804.05 343.24 763.73 317.9 731.49C277.87 680.47 213.89 647.05 147.98 658.86C17.69 682.51 -41.42 834.49 32.23 939.93C137.52 1090.6 374.28 1064.51 495.79 960.13C533.63 927.67 568.96 891.56 598.57 848.74" />
			<path id="path406" class="shp1" d="M1450.72 785.46C1352.78 678.01 1322.14 499.34 1316.11 380.59C1310.92 277.99 1316.46 100.31 1397.27 48.59C1370.22 14.57 1316.86 0.87 1276.31 0.87C1185.2 0.87 1141.28 61.58 1110.12 105.24C1099.83 119.66 946.62 331.12 946.62 331.12C946.62 331.12 817.75 131.66 801.91 107.7C780.02 74.64 739.04 13.89 667 3.37C635.99 -1.16 555.52 -5.28 511.72 54.86C587.21 115.29 585.33 269.19 568.94 374.26C519.76 689.64 385.63 718.69 385.63 718.69C454.33 904.33 631.28 830.98 681.28 682.97C713.66 586.76 734.57 464.98 739.39 363.99L933.58 662C933.58 662 1153.45 364.91 1153.45 365.18C1117.24 890.58 1297.59 1039.52 1455.31 1039.52C1613.15 1039.52 1666.87 895.1 1666.87 895.1C1581.52 889.94 1506.82 847 1450.72 785.46" />
		</g>
	</g>
</svg>